<?xml version="1.0" encoding="UTF-8" standalone="no"?>
<!DOCTYPE svg PUBLIC "-//W3C//DTD SVG 1.1//EN"
 "http://www.w3.org/Graphics/SVG/1.1/DTD/svg11.dtd">
<!-- Generated by graphviz version 2.40.1 (20161225.0304)
 -->
<!-- Title: finite_state_machine Pages: 1 -->
<svg width="312pt" height="113pt"
 viewBox="0.00 0.00 311.99 113.00" xmlns="http://www.w3.org/2000/svg" xmlns:xlink="http://www.w3.org/1999/xlink">
<g id="graph0" class="graph" transform="scale(1 1) rotate(0) translate(4 108.9965)">
<title>finite_state_machine</title>
<polygon fill="#ffffff" stroke="transparent" points="-4,4 -4,-108.9965 307.9862,-108.9965 307.9862,4 -4,4"/>
<!-- q3 -->
<g id="node1" class="node">
<title>q3</title>
<ellipse fill="none" stroke="#000000" cx="187.4913" cy="-54.4983" rx="19.4968" ry="19.4968"/>
<ellipse fill="none" stroke="#000000" cx="187.4913" cy="-54.4983" rx="23.4965" ry="23.4965"/>
<text text-anchor="middle" x="187.4913" y="-50.7983" font-family="Times,serif" font-size="14.00" fill="#000000">q3</text>
</g>
<!-- q4 -->
<g id="node4" class="node">
<title>q4</title>
<ellipse fill="none" stroke="#000000" cx="284.4879" cy="-19.4983" rx="19.4965" ry="19.4965"/>
<text text-anchor="middle" x="284.4879" y="-15.7983" font-family="Times,serif" font-size="14.00" fill="#000000">q4</text>
</g>
<!-- q3&#45;&gt;q4 -->
<g id="edge5" class="edge">
<title>q3&#45;&gt;q4</title>
<path fill="none" stroke="#000000" d="M209.9881,-46.3806C223.8113,-41.3927 241.6357,-34.961 256.3836,-29.6393"/>
<polygon fill="#000000" stroke="#000000" points="257.7969,-32.8503 266.0153,-26.1639 255.4209,-26.2659 257.7969,-32.8503"/>
<text text-anchor="middle" x="237.9896" y="-42.2983" font-family="Times,serif" font-size="14.00" fill="#000000">0,1</text>
</g>
<!-- q1 -->
<g id="node2" class="node">
<title>q1</title>
<ellipse fill="none" stroke="#000000" cx="19.4983" cy="-19.4983" rx="19.4965" ry="19.4965"/>
<text text-anchor="middle" x="19.4983" y="-15.7983" font-family="Times,serif" font-size="14.00" fill="#000000">q1</text>
</g>
<!-- q2 -->
<g id="node3" class="node">
<title>q2</title>
<ellipse fill="none" stroke="#000000" cx="101.4948" cy="-52.4983" rx="19.4965" ry="19.4965"/>
<text text-anchor="middle" x="101.4948" y="-48.7983" font-family="Times,serif" font-size="14.00" fill="#000000">q2</text>
</g>
<!-- q1&#45;&gt;q2 -->
<g id="edge1" class="edge">
<title>q1&#45;&gt;q2</title>
<path fill="none" stroke="#000000" d="M37.696,-26.822C48.3118,-31.0944 61.918,-36.5704 73.8363,-41.367"/>
<polygon fill="#000000" stroke="#000000" points="72.7643,-44.7083 83.348,-45.195 75.3779,-38.2145 72.7643,-44.7083"/>
<text text-anchor="middle" x="60.4965" y="-40.2983" font-family="Times,serif" font-size="14.00" fill="#000000">0</text>
</g>
<!-- q1&#45;&gt;q4 -->
<g id="edge2" class="edge">
<title>q1&#45;&gt;q4</title>
<path fill="none" stroke="#000000" d="M39.4156,-19.4983C85.5676,-19.4983 200.0426,-19.4983 254.6217,-19.4983"/>
<polygon fill="#000000" stroke="#000000" points="254.701,-22.9984 264.701,-19.4983 254.7009,-15.9984 254.701,-22.9984"/>
<text text-anchor="middle" x="142.4931" y="-23.2983" font-family="Times,serif" font-size="14.00" fill="#000000">1</text>
</g>
<!-- q2&#45;&gt;q3 -->
<g id="edge3" class="edge">
<title>q2&#45;&gt;q3</title>
<path fill="none" stroke="#000000" d="M121.0088,-52.9521C130.6226,-53.1757 142.4958,-53.4518 153.536,-53.7086"/>
<polygon fill="#000000" stroke="#000000" points="153.6861,-57.2129 163.7648,-53.9465 153.8489,-50.2148 153.6861,-57.2129"/>
<text text-anchor="middle" x="142.4931" y="-57.2983" font-family="Times,serif" font-size="14.00" fill="#000000">0</text>
</g>
<!-- q2&#45;&gt;q2 -->
<g id="edge4" class="edge">
<title>q2&#45;&gt;q2</title>
<path fill="none" stroke="#000000" d="M94.3043,-71.0201C93.0823,-80.95 95.4792,-89.9965 101.4948,-89.9965 105.2546,-89.9965 107.6008,-86.4627 108.5334,-81.3881"/>
<polygon fill="#000000" stroke="#000000" points="112.0383,-81.0703 108.6854,-71.0201 105.039,-80.9676 112.0383,-81.0703"/>
<text text-anchor="middle" x="101.4948" y="-93.7965" font-family="Times,serif" font-size="14.00" fill="#000000">1</text>
</g>
<!-- q4&#45;&gt;q4 -->
<g id="edge6" class="edge">
<title>q4&#45;&gt;q4</title>
<path fill="none" stroke="#000000" d="M276.3367,-37.2446C274.6732,-47.474 277.3902,-56.9965 284.4879,-56.9965 289.0348,-56.9965 291.784,-53.0885 292.7353,-47.5901"/>
<polygon fill="#000000" stroke="#000000" points="296.232,-47.2116 292.6391,-37.2446 289.2323,-47.2768 296.232,-47.2116"/>
<text text-anchor="middle" x="284.4879" y="-60.7965" font-family="Times,serif" font-size="14.00" fill="#000000">0,1</text>
</g>
</g>
</svg>
