<?xml version="1.0" encoding="UTF-8" standalone="no"?>
<!DOCTYPE svg PUBLIC "-//W3C//DTD SVG 1.1//EN"
 "http://www.w3.org/Graphics/SVG/1.1/DTD/svg11.dtd">
<!-- Generated by graphviz version 2.40.1 (20161225.0304)
 -->
<!-- Title: finite_state_machine Pages: 1 -->
<svg width="317pt" height="116pt"
 viewBox="0.00 0.00 316.99 116.00" xmlns="http://www.w3.org/2000/svg" xmlns:xlink="http://www.w3.org/1999/xlink">
<g id="graph0" class="graph" transform="scale(1 1) rotate(0) translate(4 111.9965)">
<title>finite_state_machine</title>
<polygon fill="#ffffff" stroke="transparent" points="-4,4 -4,-111.9965 312.9862,-111.9965 312.9862,4 -4,4"/>
<!-- q2 -->
<g id="node1" class="node">
<title>q2</title>
<ellipse fill="none" stroke="#000000" cx="105.4948" cy="-84.4983" rx="19.4968" ry="19.4968"/>
<ellipse fill="none" stroke="#000000" cx="105.4948" cy="-84.4983" rx="23.4965" ry="23.4965"/>
<text text-anchor="middle" x="105.4948" y="-80.7983" font-family="Times,serif" font-size="14.00" fill="#000000">q2</text>
</g>
<!-- q3 -->
<g id="node6" class="node">
<title>q3</title>
<ellipse fill="none" stroke="#000000" cx="195.4913" cy="-84.4983" rx="19.4965" ry="19.4965"/>
<text text-anchor="middle" x="195.4913" y="-80.7983" font-family="Times,serif" font-size="14.00" fill="#000000">q3</text>
</g>
<!-- q2&#45;&gt;q3 -->
<g id="edge3" class="edge">
<title>q2&#45;&gt;q3</title>
<path fill="none" stroke="#000000" d="M129.1403,-84.4983C140.3048,-84.4983 153.7521,-84.4983 165.6134,-84.4983"/>
<polygon fill="#000000" stroke="#000000" points="165.9496,-87.9984 175.9496,-84.4983 165.9495,-80.9984 165.9496,-87.9984"/>
<text text-anchor="middle" x="150.4931" y="-88.2983" font-family="Times,serif" font-size="14.00" fill="#000000">ε</text>
</g>
<!-- q4 -->
<g id="node2" class="node">
<title>q4</title>
<ellipse fill="none" stroke="#000000" cx="285.4879" cy="-84.4983" rx="19.4968" ry="19.4968"/>
<ellipse fill="none" stroke="#000000" cx="285.4879" cy="-84.4983" rx="23.4965" ry="23.4965"/>
<text text-anchor="middle" x="285.4879" y="-80.7983" font-family="Times,serif" font-size="14.00" fill="#000000">q4</text>
</g>
<!-- q4&#45;&gt;q3 -->
<g id="edge5" class="edge">
<title>q4&#45;&gt;q3</title>
<path fill="none" stroke="#000000" d="M264.9853,-73.0082C258.4749,-69.9419 251.1122,-67.0513 243.9896,-65.4983 236.336,-63.8295 228.309,-65.4655 221.0376,-68.361"/>
<polygon fill="#000000" stroke="#000000" points="219.1625,-65.3806 211.6964,-72.8978 222.2207,-71.6773 219.1625,-65.3806"/>
<text text-anchor="middle" x="240.4896" y="-69.2983" font-family="Times,serif" font-size="14.00" fill="#000000">ε</text>
</g>
<!-- q6 -->
<g id="node3" class="node">
<title>q6</title>
<ellipse fill="none" stroke="#000000" cx="195.4913" cy="-23.4983" rx="19.4968" ry="19.4968"/>
<ellipse fill="none" stroke="#000000" cx="195.4913" cy="-23.4983" rx="23.4965" ry="23.4965"/>
<text text-anchor="middle" x="195.4913" y="-19.7983" font-family="Times,serif" font-size="14.00" fill="#000000">q6</text>
</g>
<!-- q1 -->
<g id="node4" class="node">
<title>q1</title>
<ellipse fill="none" stroke="#000000" cx="19.4983" cy="-53.4983" rx="19.4965" ry="19.4965"/>
<text text-anchor="middle" x="19.4983" y="-49.7983" font-family="Times,serif" font-size="14.00" fill="#000000">q1</text>
</g>
<!-- q1&#45;&gt;q2 -->
<g id="edge1" class="edge">
<title>q1&#45;&gt;q2</title>
<path fill="none" stroke="#000000" d="M38.1582,-60.2248C48.5011,-63.9532 61.6455,-68.6915 73.5704,-72.9902"/>
<polygon fill="#000000" stroke="#000000" points="72.6179,-76.3672 83.2122,-76.4659 74.9917,-69.782 72.6179,-76.3672"/>
<text text-anchor="middle" x="60.4965" y="-72.2983" font-family="Times,serif" font-size="14.00" fill="#000000">ε</text>
</g>
<!-- q5 -->
<g id="node5" class="node">
<title>q5</title>
<ellipse fill="none" stroke="#000000" cx="105.4948" cy="-23.4983" rx="19.4965" ry="19.4965"/>
<text text-anchor="middle" x="105.4948" y="-19.7983" font-family="Times,serif" font-size="14.00" fill="#000000">q5</text>
</g>
<!-- q1&#45;&gt;q5 -->
<g id="edge2" class="edge">
<title>q1&#45;&gt;q5</title>
<path fill="none" stroke="#000000" d="M38.1582,-46.9887C49.5401,-43.0182 64.3144,-37.8641 77.1229,-33.3958"/>
<polygon fill="#000000" stroke="#000000" points="78.5822,-36.5937 86.8713,-29.9951 76.2764,-29.9843 78.5822,-36.5937"/>
<text text-anchor="middle" x="60.4965" y="-44.2983" font-family="Times,serif" font-size="14.00" fill="#000000">ε</text>
</g>
<!-- q5&#45;&gt;q6 -->
<g id="edge6" class="edge">
<title>q5&#45;&gt;q6</title>
<path fill="none" stroke="#000000" d="M125.0227,-23.4983C135.7659,-23.4983 149.3973,-23.4983 161.8024,-23.4983"/>
<polygon fill="#000000" stroke="#000000" points="161.844,-26.9984 171.844,-23.4983 161.8439,-19.9984 161.844,-26.9984"/>
<text text-anchor="middle" x="150.4931" y="-27.2983" font-family="Times,serif" font-size="14.00" fill="#000000">1</text>
</g>
<!-- q3&#45;&gt;q4 -->
<g id="edge4" class="edge">
<title>q3&#45;&gt;q4</title>
<path fill="none" stroke="#000000" d="M215.0193,-84.4983C225.7625,-84.4983 239.3938,-84.4983 251.7989,-84.4983"/>
<polygon fill="#000000" stroke="#000000" points="251.8406,-87.9984 261.8405,-84.4983 251.8405,-80.9984 251.8406,-87.9984"/>
<text text-anchor="middle" x="240.4896" y="-88.2983" font-family="Times,serif" font-size="14.00" fill="#000000">0</text>
</g>
</g>
</svg>
