<?xml version="1.0" encoding="UTF-8" standalone="no"?>
<!DOCTYPE svg PUBLIC "-//W3C//DTD SVG 1.1//EN"
 "http://www.w3.org/Graphics/SVG/1.1/DTD/svg11.dtd">
<!-- Generated by graphviz version 2.40.1 (20161225.0304)
 -->
<!-- Title: finite_state_machine Pages: 1 -->
<svg width="350pt" height="112pt"
 viewBox="0.00 0.00 349.99 112.00" xmlns="http://www.w3.org/2000/svg" xmlns:xlink="http://www.w3.org/1999/xlink">
<g id="graph0" class="graph" transform="scale(1 1) rotate(0) translate(4 107.9965)">
<title>finite_state_machine</title>
<polygon fill="#ffffff" stroke="transparent" points="-4,4 -4,-107.9965 345.9862,-107.9965 345.9862,4 -4,4"/>
<!-- q0 -->
<g id="node1" class="node">
<title>q0</title>
<ellipse fill="none" stroke="#000000" cx=".5" cy="-19.4983" rx=".5" ry="18"/>
<image xlink:href="vbar.png" width="1px" height="36px" preserveAspectRatio="xMinYMin meet" x="0" y="-37.4983"/>
</g>
<!-- q1 -->
<g id="node3" class="node">
<title>q1</title>
<ellipse fill="none" stroke="#000000" cx="57.4983" cy="-19.4983" rx="19.4965" ry="19.4965"/>
<text text-anchor="middle" x="57.4983" y="-15.7983" font-family="Times,serif" font-size="14.00" fill="#000000">q1</text>
</g>
<!-- q0&#45;&gt;q1 -->
<g id="edge1" class="edge">
<title>q0&#45;&gt;q1</title>
<path fill="none" stroke="#000000" d="M1.1401,-19.4983C3.9684,-19.4983 15.7387,-19.4983 27.7966,-19.4983"/>
<polygon fill="#000000" stroke="#000000" points="27.8029,-22.9984 37.8029,-19.4983 27.8029,-15.9984 27.8029,-22.9984"/>
</g>
<!-- q3 -->
<g id="node2" class="node">
<title>q3</title>
<ellipse fill="none" stroke="#000000" cx="225.4913" cy="-54.4983" rx="19.4968" ry="19.4968"/>
<ellipse fill="none" stroke="#000000" cx="225.4913" cy="-54.4983" rx="23.4965" ry="23.4965"/>
<text text-anchor="middle" x="225.4913" y="-50.7983" font-family="Times,serif" font-size="14.00" fill="#000000">q3</text>
</g>
<!-- q4 -->
<g id="node5" class="node">
<title>q4</title>
<ellipse fill="none" stroke="#000000" cx="322.4879" cy="-19.4983" rx="19.4965" ry="19.4965"/>
<text text-anchor="middle" x="322.4879" y="-15.7983" font-family="Times,serif" font-size="14.00" fill="#000000">q4</text>
</g>
<!-- q3&#45;&gt;q4 -->
<g id="edge6" class="edge">
<title>q3&#45;&gt;q4</title>
<path fill="none" stroke="#000000" d="M247.9881,-46.3806C261.8113,-41.3927 279.6357,-34.961 294.3836,-29.6393"/>
<polygon fill="#000000" stroke="#000000" points="295.7969,-32.8503 304.0153,-26.1639 293.4209,-26.2659 295.7969,-32.8503"/>
<text text-anchor="middle" x="275.9896" y="-42.2983" font-family="Times,serif" font-size="14.00" fill="#000000">0,1</text>
</g>
<!-- q2 -->
<g id="node4" class="node">
<title>q2</title>
<ellipse fill="none" stroke="#000000" cx="139.4948" cy="-51.4983" rx="19.4965" ry="19.4965"/>
<text text-anchor="middle" x="139.4948" y="-47.7983" font-family="Times,serif" font-size="14.00" fill="#000000">q2</text>
</g>
<!-- q1&#45;&gt;q2 -->
<g id="edge2" class="edge">
<title>q1&#45;&gt;q2</title>
<path fill="none" stroke="#000000" d="M75.696,-26.6001C86.238,-30.7143 99.7292,-35.9793 111.5878,-40.6073"/>
<polygon fill="#000000" stroke="#000000" points="110.4763,-43.9305 121.0644,-44.3056 113.0212,-37.4095 110.4763,-43.9305"/>
<text text-anchor="middle" x="98.4965" y="-39.2983" font-family="Times,serif" font-size="14.00" fill="#000000">0</text>
</g>
<!-- q1&#45;&gt;q4 -->
<g id="edge3" class="edge">
<title>q1&#45;&gt;q4</title>
<path fill="none" stroke="#000000" d="M77.4156,-19.4983C123.5676,-19.4983 238.0426,-19.4983 292.6217,-19.4983"/>
<polygon fill="#000000" stroke="#000000" points="292.701,-22.9984 302.701,-19.4983 292.7009,-15.9984 292.701,-22.9984"/>
<text text-anchor="middle" x="180.4931" y="-23.2983" font-family="Times,serif" font-size="14.00" fill="#000000">1</text>
</g>
<!-- q2&#45;&gt;q3 -->
<g id="edge4" class="edge">
<title>q2&#45;&gt;q3</title>
<path fill="none" stroke="#000000" d="M159.0088,-52.179C168.6226,-52.5144 180.4958,-52.9286 191.536,-53.3137"/>
<polygon fill="#000000" stroke="#000000" points="191.6488,-56.8197 201.7648,-53.6706 191.8929,-49.824 191.6488,-56.8197"/>
<text text-anchor="middle" x="180.4931" y="-56.2983" font-family="Times,serif" font-size="14.00" fill="#000000">0</text>
</g>
<!-- q2&#45;&gt;q2 -->
<g id="edge5" class="edge">
<title>q2&#45;&gt;q2</title>
<path fill="none" stroke="#000000" d="M132.3043,-70.0201C131.0823,-79.95 133.4792,-88.9965 139.4948,-88.9965 143.2546,-88.9965 145.6008,-85.4627 146.5334,-80.3881"/>
<polygon fill="#000000" stroke="#000000" points="150.0383,-80.0703 146.6854,-70.0201 143.039,-79.9676 150.0383,-80.0703"/>
<text text-anchor="middle" x="139.4948" y="-92.7965" font-family="Times,serif" font-size="14.00" fill="#000000">1</text>
</g>
<!-- q4&#45;&gt;q4 -->
<g id="edge7" class="edge">
<title>q4&#45;&gt;q4</title>
<path fill="none" stroke="#000000" d="M314.3367,-37.2446C312.6732,-47.474 315.3902,-56.9965 322.4879,-56.9965 327.0348,-56.9965 329.784,-53.0885 330.7353,-47.5901"/>
<polygon fill="#000000" stroke="#000000" points="334.232,-47.2116 330.6391,-37.2446 327.2323,-47.2768 334.232,-47.2116"/>
<text text-anchor="middle" x="322.4879" y="-60.7965" font-family="Times,serif" font-size="14.00" fill="#000000">0,1</text>
</g>
</g>
</svg>
