<?xml version="1.0" encoding="UTF-8" standalone="no"?>
<!DOCTYPE svg PUBLIC "-//W3C//DTD SVG 1.1//EN"
 "http://www.w3.org/Graphics/SVG/1.1/DTD/svg11.dtd">
<!-- Generated by graphviz version 2.40.1 (20161225.0304)
 -->
<!-- Title: finite_state_machine Pages: 1 -->
<svg width="355pt" height="116pt"
 viewBox="0.00 0.00 354.99 116.00" xmlns="http://www.w3.org/2000/svg" xmlns:xlink="http://www.w3.org/1999/xlink">
<g id="graph0" class="graph" transform="scale(1 1) rotate(0) translate(4 111.9965)">
<title>finite_state_machine</title>
<polygon fill="#ffffff" stroke="transparent" points="-4,4 -4,-111.9965 350.9862,-111.9965 350.9862,4 -4,4"/>
<!-- q0 -->
<g id="node1" class="node">
<title>q0</title>
<ellipse fill="none" stroke="#000000" cx=".5" cy="-53.4983" rx=".5" ry="18"/>
<image xlink:href="vbar.png" width="1px" height="36px" preserveAspectRatio="xMinYMin meet" x="0" y="-71.4983"/>
</g>
<!-- q1 -->
<g id="node5" class="node">
<title>q1</title>
<ellipse fill="none" stroke="#000000" cx="57.4983" cy="-53.4983" rx="19.4965" ry="19.4965"/>
<text text-anchor="middle" x="57.4983" y="-49.7983" font-family="Times,serif" font-size="14.00" fill="#000000">q1</text>
</g>
<!-- q0&#45;&gt;q1 -->
<g id="edge1" class="edge">
<title>q0&#45;&gt;q1</title>
<path fill="none" stroke="#000000" d="M1.1401,-53.4983C3.9684,-53.4983 15.7387,-53.4983 27.7966,-53.4983"/>
<polygon fill="#000000" stroke="#000000" points="27.8029,-56.9984 37.8029,-53.4983 27.8029,-49.9984 27.8029,-56.9984"/>
</g>
<!-- q2 -->
<g id="node2" class="node">
<title>q2</title>
<ellipse fill="none" stroke="#000000" cx="143.4948" cy="-84.4983" rx="19.4968" ry="19.4968"/>
<ellipse fill="none" stroke="#000000" cx="143.4948" cy="-84.4983" rx="23.4965" ry="23.4965"/>
<text text-anchor="middle" x="143.4948" y="-80.7983" font-family="Times,serif" font-size="14.00" fill="#000000">q2</text>
</g>
<!-- q3 -->
<g id="node7" class="node">
<title>q3</title>
<ellipse fill="none" stroke="#000000" cx="233.4913" cy="-84.4983" rx="19.4965" ry="19.4965"/>
<text text-anchor="middle" x="233.4913" y="-80.7983" font-family="Times,serif" font-size="14.00" fill="#000000">q3</text>
</g>
<!-- q2&#45;&gt;q3 -->
<g id="edge4" class="edge">
<title>q2&#45;&gt;q3</title>
<path fill="none" stroke="#000000" d="M167.1403,-84.4983C178.3048,-84.4983 191.7521,-84.4983 203.6134,-84.4983"/>
<polygon fill="#000000" stroke="#000000" points="203.9496,-87.9984 213.9496,-84.4983 203.9495,-80.9984 203.9496,-87.9984"/>
<text text-anchor="middle" x="188.4931" y="-88.2983" font-family="Times,serif" font-size="14.00" fill="#000000">ε</text>
</g>
<!-- q4 -->
<g id="node3" class="node">
<title>q4</title>
<ellipse fill="none" stroke="#000000" cx="323.4879" cy="-84.4983" rx="19.4968" ry="19.4968"/>
<ellipse fill="none" stroke="#000000" cx="323.4879" cy="-84.4983" rx="23.4965" ry="23.4965"/>
<text text-anchor="middle" x="323.4879" y="-80.7983" font-family="Times,serif" font-size="14.00" fill="#000000">q4</text>
</g>
<!-- q4&#45;&gt;q3 -->
<g id="edge6" class="edge">
<title>q4&#45;&gt;q3</title>
<path fill="none" stroke="#000000" d="M302.9853,-73.0082C296.4749,-69.9419 289.1122,-67.0513 281.9896,-65.4983 274.336,-63.8295 266.309,-65.4655 259.0376,-68.361"/>
<polygon fill="#000000" stroke="#000000" points="257.1625,-65.3806 249.6964,-72.8978 260.2207,-71.6773 257.1625,-65.3806"/>
<text text-anchor="middle" x="278.4896" y="-69.2983" font-family="Times,serif" font-size="14.00" fill="#000000">ε</text>
</g>
<!-- q6 -->
<g id="node4" class="node">
<title>q6</title>
<ellipse fill="none" stroke="#000000" cx="233.4913" cy="-23.4983" rx="19.4968" ry="19.4968"/>
<ellipse fill="none" stroke="#000000" cx="233.4913" cy="-23.4983" rx="23.4965" ry="23.4965"/>
<text text-anchor="middle" x="233.4913" y="-19.7983" font-family="Times,serif" font-size="14.00" fill="#000000">q6</text>
</g>
<!-- q1&#45;&gt;q2 -->
<g id="edge2" class="edge">
<title>q1&#45;&gt;q2</title>
<path fill="none" stroke="#000000" d="M76.1582,-60.2248C86.5011,-63.9532 99.6455,-68.6915 111.5704,-72.9902"/>
<polygon fill="#000000" stroke="#000000" points="110.6179,-76.3672 121.2122,-76.4659 112.9917,-69.782 110.6179,-76.3672"/>
<text text-anchor="middle" x="98.4965" y="-72.2983" font-family="Times,serif" font-size="14.00" fill="#000000">ε</text>
</g>
<!-- q5 -->
<g id="node6" class="node">
<title>q5</title>
<ellipse fill="none" stroke="#000000" cx="143.4948" cy="-23.4983" rx="19.4965" ry="19.4965"/>
<text text-anchor="middle" x="143.4948" y="-19.7983" font-family="Times,serif" font-size="14.00" fill="#000000">q5</text>
</g>
<!-- q1&#45;&gt;q5 -->
<g id="edge3" class="edge">
<title>q1&#45;&gt;q5</title>
<path fill="none" stroke="#000000" d="M76.1582,-46.9887C87.5401,-43.0182 102.3144,-37.8641 115.1229,-33.3958"/>
<polygon fill="#000000" stroke="#000000" points="116.5822,-36.5937 124.8713,-29.9951 114.2764,-29.9843 116.5822,-36.5937"/>
<text text-anchor="middle" x="98.4965" y="-44.2983" font-family="Times,serif" font-size="14.00" fill="#000000">ε</text>
</g>
<!-- q5&#45;&gt;q6 -->
<g id="edge7" class="edge">
<title>q5&#45;&gt;q6</title>
<path fill="none" stroke="#000000" d="M163.0227,-23.4983C173.7659,-23.4983 187.3973,-23.4983 199.8024,-23.4983"/>
<polygon fill="#000000" stroke="#000000" points="199.844,-26.9984 209.844,-23.4983 199.8439,-19.9984 199.844,-26.9984"/>
<text text-anchor="middle" x="188.4931" y="-27.2983" font-family="Times,serif" font-size="14.00" fill="#000000">1</text>
</g>
<!-- q3&#45;&gt;q4 -->
<g id="edge5" class="edge">
<title>q3&#45;&gt;q4</title>
<path fill="none" stroke="#000000" d="M253.0193,-84.4983C263.7625,-84.4983 277.3938,-84.4983 289.7989,-84.4983"/>
<polygon fill="#000000" stroke="#000000" points="289.8406,-87.9984 299.8405,-84.4983 289.8405,-80.9984 289.8406,-87.9984"/>
<text text-anchor="middle" x="278.4896" y="-88.2983" font-family="Times,serif" font-size="14.00" fill="#000000">0</text>
</g>
</g>
</svg>
